<?xml version="1.0" encoding="UTF-8" standalone="no"?>
<svg
   xmlns:dc="http://purl.org/dc/elements/1.1/"
   xmlns:cc="http://creativecommons.org/ns#"
   xmlns:rdf="http://www.w3.org/1999/02/22-rdf-syntax-ns#"
   xmlns:svg="http://www.w3.org/2000/svg"
   xmlns="http://www.w3.org/2000/svg"
   xmlns:sodipodi="http://sodipodi.sourceforge.net/DTD/sodipodi-0.dtd"
   xmlns:inkscape="http://www.inkscape.org/namespaces/inkscape"
   aria-hidden="true"
   focusable="false"
   data-prefix="far"
   data-icon="clipboard"
   class="svg-inline--fa fa-clipboard fa-w-12"
   role="img"
   viewBox="0 0 384 512"
   version="1.1"
   id="svg4"
   sodipodi:docname="clipboard.svg"
   inkscape:version="0.92.2 5c3e80d, 2017-08-06">
  <metadata
     id="metadata10">
    <rdf:RDF>
      <cc:Work
         rdf:about="">
        <dc:format>image/svg+xml</dc:format>
        <dc:type
           rdf:resource="http://purl.org/dc/dcmitype/StillImage" />
        <dc:title></dc:title>
      </cc:Work>
    </rdf:RDF>
  </metadata>
  <defs
     id="defs8" />
  <sodipodi:namedview
     pagecolor="#ffffff"
     bordercolor="#666666"
     borderopacity="1"
     objecttolerance="10"
     gridtolerance="10"
     guidetolerance="10"
     inkscape:pageopacity="0"
     inkscape:pageshadow="2"
     inkscape:window-width="300"
     inkscape:window-height="700"
     id="namedview6"
     showgrid="false"
     inkscape:zoom="0.4609375"
     inkscape:cx="192"
     inkscape:cy="256"
     inkscape:window-x="0"
     inkscape:window-y="0"
     inkscape:window-maximized="0"
     inkscape:current-layer="svg4" />
  <path
     fill="currentColor"
     d="M336 64h-80c0-35.3-28.7-64-64-64s-64 28.7-64 64H48C21.5 64 0 85.5 0 112v352c0 26.5 21.5 48 48 48h288c26.5 0 48-21.5 48-48V112c0-26.5-21.5-48-48-48zM192 40c13.3 0 24 10.7 24 24s-10.7 24-24 24-24-10.7-24-24 10.7-24 24-24zm144 418c0 3.3-2.7 6-6 6H54c-3.3 0-6-2.7-6-6V118c0-3.3 2.7-6 6-6h42v36c0 6.6 5.4 12 12 12h168c6.6 0 12-5.4 12-12v-36h42c3.3 0 6 2.7 6 6z"
     id="path2" />
  <path
     d="m 215.00218,259.53843 c -25.73491,-12.54978 -55.91359,-5.12734 -73.34691,16.01683 l 26.95572,26.95517 c 3.07646,3.0764 3.07646,8.00841 0,11.03599 -1.51382,1.51378 -3.51597,2.29509 -5.51811,2.29509 -2.00215,0 -4.00429,-0.78131 -5.51811,-2.29509 L 133.06069,289.03285 70.505827,417.31403 c -1.41616,2.92991 -1.51382,6.49463 0,9.61987 2.63697,5.42033 9.2294,7.66659 14.64985,5.02967 l 65.240663,-31.83834 -24.02575,-24.02525 c -3.07647,-3.02758 -3.07647,-8.00842 0,-11.036 3.07647,-3.02757 8.00858,-3.02757 11.03622,0 l 27.83471,27.83414 49.80949,-24.31824 c 11.71988,-5.71333 21.73061,-15.28437 27.88354,-27.88297 14.69869,-30.12924 2.19748,-66.4601 -27.93237,-81.15848 z m 44.97503,-17.04231 c 9.52241,-19.87455 4.59029,-43.36265 -14.79634,-59.42832 -24.56292,20.36287 -25.63724,52.49421 -3.8578,74.17553 l 3.90663,3.90655 c 21.68178,21.77899 53.86261,20.70469 74.17708,-3.85771 -16.06601,-19.38624 -39.5546,-24.31825 -59.42957,-14.79605 z"
     id="path2-7"
     inkscape:connector-curvature="0"
     style="fill:currentColor;stroke-width:0.48832324" />
</svg>
