<svg width="340.55999755859375px" height="158.03999023437498px" xmlns="http://www.w3.org/2000/svg" viewBox="79.72000122070312 -4.0199951171874915 340.55999755859375 158.03999023437498" style="background: rgba(0, 0, 0, 0) none repeat scroll 0% 0%;" preserveAspectRatio="xMidYMid"><defs><filter id="editing-extrusion" x="-100%" y="-100%" width="300%" height="300%"><feFlood result="color1" flood-color="rgba(39.475224796287954%,87.88572184244792%,24.75724202090089%,0.717)"></feFlood><feConvolveMatrix order="5,5" divisor="1" kernelMatrix="1 0 0 0 0 0 1 0 0 0 0 0 1 0 0 0 0 0 1 0 0 0 0 0 1" in="SourceAlpha" result="extrude"></feConvolveMatrix><feComposite in="color1" in2="extrude" result="comp-extrude" operator="in"></feComposite><feOffset dx="2.5" dy="2.5" in="comp-extrude" result="offset-extrude"></feOffset><feMerge><feMergeNode in="offset-extrude"></feMergeNode><feMergeNode in="SourceGraphic"></feMergeNode></feMerge></filter></defs><g filter="url(#editing-extrusion)"><g transform="translate(133.32998752593994, 103.41500282287598)"><path d="M16.64-6.91L16.64-6.91L16.64-6.91Q17.73-6.91 19.04-7.14L19.04-7.14L19.04-7.14Q20.35-7.36 20.99-7.74L20.99-7.74L20.99-12.86L16.38-12.48L16.38-12.48Q14.59-12.35 13.44-11.71L13.44-11.71L13.44-11.71Q12.29-11.07 12.29-9.79L12.29-9.79L12.29-9.79Q12.29-8.51 13.28-7.71L13.28-7.71L13.28-7.71Q14.27-6.91 16.64-6.91ZM16.13-32.06L16.13-32.06L16.13-32.06Q19.58-32.06 22.43-31.36L22.43-31.36L22.43-31.36Q25.28-30.66 27.30-29.22L27.30-29.22L27.30-29.22Q29.31-27.78 30.40-25.57L30.40-25.57L30.40-25.57Q31.49-23.36 31.49-20.35L31.49-20.35L31.49-6.02L31.49-6.02Q31.49-4.35 30.56-3.30L30.56-3.30L30.56-3.30Q29.63-2.24 28.35-1.47L28.35-1.47L28.35-1.47Q24.19 1.02 16.64 1.02L16.64 1.02L16.64 1.02Q13.25 1.02 10.53 0.38L10.53 0.38L10.53 0.38Q7.81-0.26 5.86-1.54L5.86-1.54L5.86-1.54Q3.90-2.82 2.85-4.80L2.85-4.80L2.85-4.80Q1.79-6.78 1.79-9.41L1.79-9.41L1.79-9.41Q1.79-13.82 4.42-16.19L4.42-16.19L4.42-16.19Q7.04-18.56 12.54-19.14L12.54-19.14L20.93-20.03L20.93-20.48L20.93-20.48Q20.93-22.34 19.30-23.14L19.30-23.14L19.30-23.14Q17.66-23.94 14.59-23.94L14.59-23.94L14.59-23.94Q12.16-23.94 9.86-23.42L9.86-23.42L9.86-23.42Q7.55-22.91 5.70-22.14L5.70-22.14L5.70-22.14Q4.86-22.72 4.29-23.90L4.29-23.90L4.29-23.90Q3.71-25.09 3.71-26.37L3.71-26.37L3.71-26.37Q3.71-28.03 4.51-29.02L4.51-29.02L4.51-29.02Q5.31-30.02 6.98-30.72L6.98-30.72L6.98-30.72Q8.83-31.42 11.36-31.74L11.36-31.74L11.36-31.74Q13.89-32.06 16.13-32.06ZM44.74-4.61L44.74-28.54L38.34-26.56L38.34-26.56Q37.38-27.20 36.42-28.35L36.42-28.35L36.42-28.35Q35.46-29.50 35.46-31.55L35.46-31.55L35.46-31.55Q35.46-35.39 40.13-36.93L40.13-36.93L47.30-39.36L49.66-39.36L49.66-39.36Q52.42-39.36 54.02-37.76L54.02-37.76L54.02-37.76Q55.62-36.16 55.62-33.41L55.62-33.41L55.62-0.06L55.62-0.06Q54.91 0.06 53.54 0.29L53.54 0.29L53.54 0.29Q52.16 0.51 50.75 0.51L50.75 0.51L50.75 0.51Q49.34 0.51 48.22 0.32L48.22 0.32L48.22 0.32Q47.10 0.13 46.34-0.45L46.34-0.45L46.34-0.45Q45.57-1.02 45.15-2.02L45.15-2.02L45.15-2.02Q44.74-3.01 44.74-4.61L44.74-4.61ZM69.89-4.61L69.89-28.54L63.49-26.56L63.49-26.56Q62.53-27.20 61.57-28.35L61.57-28.35L61.57-28.35Q60.61-29.50 60.61-31.55L60.61-31.55L60.61-31.55Q60.61-35.39 65.28-36.93L65.28-36.93L72.45-39.36L74.82-39.36L74.82-39.36Q77.57-39.36 79.17-37.76L79.17-37.76L79.17-37.76Q80.77-36.16 80.77-33.41L80.77-33.41L80.77-0.06L80.77-0.06Q80.06 0.06 78.69 0.29L78.69 0.29L78.69 0.29Q77.31 0.51 75.90 0.51L75.90 0.51L75.90 0.51Q74.50 0.51 73.38 0.32L73.38 0.32L73.38 0.32Q72.26 0.13 71.49-0.45L71.49-0.45L71.49-0.45Q70.72-1.02 70.30-2.02L70.30-2.02L70.30-2.02Q69.89-3.01 69.89-4.61L69.89-4.61ZM93.31-7.94L93.31-7.94L93.31-7.94Q92.61-9.54 91.81-11.52L91.81-11.52L91.81-11.52Q91.01-13.50 90.14-16.06L90.14-16.06L90.14-16.06Q89.28-18.62 88.35-21.92L88.35-21.92L88.35-21.92Q87.42-25.22 86.40-29.50L86.40-29.50L86.40-29.50Q87.30-30.40 88.80-31.07L88.80-31.07L88.80-31.07Q90.30-31.74 92.10-31.74L92.10-31.74L92.10-31.74Q94.34-31.74 95.81-30.82L95.81-30.82L95.81-30.82Q97.28-29.89 97.98-27.33L97.98-27.33L103.04-9.73L103.30-9.73L103.30-9.73Q104.06-11.90 104.80-14.46L104.80-14.46L104.80-14.46Q105.54-17.02 106.24-19.74L106.24-19.74L106.24-19.74Q106.94-22.46 107.55-25.18L107.55-25.18L107.55-25.18Q108.16-27.90 108.61-30.53L108.61-30.53L108.61-30.53Q110.91-31.74 113.66-31.74L113.66-31.74L113.66-31.74Q115.90-31.74 117.38-30.78L117.38-30.78L117.38-30.78Q118.85-29.82 118.85-27.46L118.85-27.46L118.85-27.46Q118.85-25.73 118.40-23.46L118.40-23.46L118.40-23.46Q117.95-21.18 117.22-18.62L117.22-18.62L117.22-18.62Q116.48-16.06 115.49-13.34L115.49-13.34L115.49-13.34Q114.50-10.62 113.41-8L113.41-8L113.41-8Q112.32-5.38 111.17-3.04L111.17-3.04L111.17-3.04Q110.02-0.70 108.93 1.15L108.93 1.15L108.93 1.15Q107.14 4.29 105.60 6.27L105.60 6.27L105.60 6.27Q104.06 8.26 102.66 9.38L102.66 9.38L102.66 9.38Q101.25 10.50 99.84 10.91L99.84 10.91L99.84 10.91Q98.43 11.33 96.90 11.33L96.90 11.33L96.90 11.33Q94.21 11.33 92.54 9.73L92.54 9.73L92.54 9.73Q90.88 8.13 90.56 5.57L90.56 5.57L90.56 5.57Q92.61 3.97 94.66 2.02L94.66 2.02L94.66 2.02Q96.70 0.06 98.37-1.98L98.37-1.98L98.37-1.98Q97.28-2.30 96.03-3.49L96.03-3.49L96.03-3.49Q94.78-4.67 93.31-7.94ZM143.10-4.61L143.10-28.54L136.70-26.56L136.70-26.56Q135.74-27.20 134.78-28.35L134.78-28.35L134.78-28.35Q133.82-29.50 133.82-31.55L133.82-31.55L133.82-31.55Q133.82-35.39 138.50-36.93L138.50-36.93L145.66-39.36L148.03-39.36L148.03-39.36Q150.78-39.36 152.38-37.76L152.38-37.76L152.38-37.76Q153.98-36.16 153.98-33.41L153.98-33.41L153.98-0.06L153.98-0.06Q153.28 0.06 151.90 0.29L151.90 0.29L151.90 0.29Q150.53 0.51 149.12 0.51L149.12 0.51L149.12 0.51Q147.71 0.51 146.59 0.32L146.59 0.32L146.59 0.32Q145.47 0.13 144.70-0.45L144.70-0.45L144.70-0.45Q143.94-1.02 143.52-2.02L143.52-2.02L143.52-2.02Q143.10-3.01 143.10-4.61L143.10-4.61ZM161.41-39.74L161.41-39.74L161.41-39.74Q161.41-42.18 163.04-43.84L163.04-43.84L163.04-43.84Q164.67-45.50 167.36-45.50L167.36-45.50L167.36-45.50Q170.05-45.50 171.68-43.84L171.68-43.84L171.68-43.84Q173.31-42.18 173.31-39.74L173.31-39.74L173.31-39.74Q173.31-37.31 171.68-35.65L171.68-35.65L171.68-35.65Q170.05-33.98 167.36-33.98L167.36-33.98L167.36-33.98Q164.67-33.98 163.04-35.65L163.04-35.65L163.04-35.65Q161.41-37.31 161.41-39.74ZM172.80-26.11L172.80-0.06L172.80-0.06Q172.10 0.06 170.72 0.29L170.72 0.29L170.72 0.29Q169.34 0.51 167.94 0.51L167.94 0.51L167.94 0.51Q166.53 0.51 165.41 0.32L165.41 0.32L165.41 0.32Q164.29 0.13 163.52-0.45L163.52-0.45L163.52-0.45Q162.75-1.02 162.34-2.02L162.34-2.02L162.34-2.02Q161.92-3.01 161.92-4.61L161.92-4.61L161.92-30.66L161.92-30.66Q162.62-30.78 164-31.01L164-31.01L164-31.01Q165.38-31.23 166.78-31.23L166.78-31.23L166.78-31.23Q168.19-31.23 169.31-31.04L169.31-31.04L169.31-31.04Q170.43-30.85 171.20-30.27L171.20-30.27L171.20-30.27Q171.97-29.70 172.38-28.70L172.38-28.70L172.38-28.70Q172.80-27.71 172.80-26.11L172.80-26.11ZM205.95-9.28L205.95-9.28L205.95-9.28Q205.95-4.42 202.30-1.66L202.30-1.66L202.30-1.66Q198.66 1.09 191.55 1.09L191.55 1.09L191.55 1.09Q188.86 1.09 186.56 0.70L186.56 0.70L186.56 0.70Q184.26 0.32 182.62-0.48L182.62-0.48L182.62-0.48Q180.99-1.28 180.06-2.50L180.06-2.50L180.06-2.50Q179.14-3.71 179.14-5.38L179.14-5.38L179.14-5.38Q179.14-6.91 179.78-7.97L179.78-7.97L179.78-7.97Q180.42-9.02 181.31-9.73L181.31-9.73L181.31-9.73Q183.17-8.70 185.57-7.90L185.57-7.90L185.57-7.90Q187.97-7.10 191.10-7.10L191.10-7.10L191.10-7.10Q193.09-7.10 194.14-7.68L194.14-7.68L194.14-7.68Q195.20-8.26 195.20-9.22L195.20-9.22L195.20-9.22Q195.20-10.11 194.43-10.62L194.43-10.62L194.43-10.62Q193.66-11.14 191.87-11.46L191.87-11.46L189.95-11.84L189.95-11.84Q184.38-12.93 181.66-15.26L181.66-15.26L181.66-15.26Q178.94-17.60 178.94-21.95L178.94-21.95L178.94-21.95Q178.94-24.32 179.97-26.24L179.97-26.24L179.97-26.24Q180.99-28.16 182.85-29.44L182.85-29.44L182.85-29.44Q184.70-30.72 187.30-31.42L187.30-31.42L187.30-31.42Q189.89-32.13 193.02-32.13L193.02-32.13L193.02-32.13Q195.39-32.13 197.47-31.78L197.47-31.78L197.47-31.78Q199.55-31.42 201.09-30.72L201.09-30.72L201.09-30.72Q202.62-30.02 203.52-28.90L203.52-28.90L203.52-28.90Q204.42-27.78 204.42-26.24L204.42-26.24L204.42-26.24Q204.42-24.77 203.87-23.71L203.87-23.71L203.87-23.71Q203.33-22.66 202.50-21.95L202.50-21.95L202.50-21.95Q201.98-22.27 200.96-22.62L200.96-22.62L200.96-22.62Q199.94-22.98 198.72-23.26L198.72-23.26L198.72-23.26Q197.50-23.55 196.26-23.74L196.26-23.74L196.26-23.74Q195.01-23.94 193.98-23.94L193.98-23.94L193.98-23.94Q191.87-23.94 190.72-23.46L190.72-23.46L190.72-23.46Q189.57-22.98 189.57-21.95L189.57-21.95L189.57-21.95Q189.57-21.25 190.21-20.80L190.21-20.80L190.21-20.80Q190.85-20.35 192.64-19.97L192.64-19.97L194.62-19.52L194.62-19.52Q200.77-18.11 203.36-15.65L203.36-15.65L203.36-15.65Q205.95-13.18 205.95-9.28ZM222.08-20.35L222.08-10.69L222.08-10.69Q222.08-9.02 223.14-8.32L223.14-8.32L223.14-8.32Q224.19-7.62 226.11-7.62L226.11-7.62L226.11-7.62Q227.07-7.62 228.10-7.78L228.10-7.78L228.10-7.78Q229.12-7.94 229.89-8.19L229.89-8.19L229.89-8.19Q230.46-7.49 230.88-6.62L230.88-6.62L230.88-6.62Q231.30-5.76 231.30-4.54L231.30-4.54L231.30-4.54Q231.30-2.11 229.47-0.58L229.47-0.58L229.47-0.58Q227.65 0.96 223.04 0.96L223.04 0.96L223.04 0.96Q217.41 0.96 214.37-1.60L214.37-1.60L214.37-1.60Q211.33-4.16 211.33-9.92L211.33-9.92L211.33-37.31L211.33-37.31Q212.03-37.50 213.34-37.73L213.34-37.73L213.34-37.73Q214.66-37.95 216.13-37.95L216.13-37.95L216.13-37.95Q218.94-37.95 220.51-36.96L220.51-36.96L220.51-36.96Q222.08-35.97 222.08-32.77L222.08-32.77L222.08-28.67L230.46-28.67L230.46-28.67Q230.85-27.97 231.20-26.91L231.20-26.91L231.20-26.91Q231.55-25.86 231.55-24.58L231.55-24.58L231.55-24.58Q231.55-22.34 230.56-21.34L230.56-21.34L230.56-21.34Q229.57-20.35 227.90-20.35L227.90-20.35L222.08-20.35Z" fill="#1a2f00"></path></g></g><style>text {
  font-size: 64px;
  font-family: Arial Black;
  dominant-baseline: central;
  text-anchor: middle;
}</style></svg>